<?xml version="1.0" standalone="no"?>
<!DOCTYPE svg PUBLIC "-//W3C//DTD SVG 20010904//EN"
 "http://www.w3.org/TR/2001/REC-SVG-20010904/DTD/svg10.dtd">
<svg version="1.0" xmlns="http://www.w3.org/2000/svg"
 width="500.000000pt" height="800.000000pt" viewBox="0 0 500.000000 800.000000"
 preserveAspectRatio="xMidYMid meet">

<g transform="translate(0.000000,800.000000) scale(0.100000,-0.100000)"
fill="#000000" stroke="none">
<path d="M2359 5830 c-268 -24 -564 -121 -794 -260 -430 -260 -732 -664 -859
-1150 -72 -273 -76 -614 -11 -894 109 -468 410 -893 821 -1159 534 -345 1248
-391 1822 -117 667 318 1082 973 1082 1705 0 1108 -951 1973 -2061 1875z m415
-331 c128 -26 201 -51 311 -108 134 -68 267 -207 290 -303 l7 -28 -846 0 -846
0 0 23 c0 65 130 217 239 281 250 146 549 194 845 135z m636 -999 l0 -201 -67
3 -68 3 -3 198 -2 197 70 0 70 0 0 -200z m578 77 c23 -23 42 -48 42 -54 0 -6
-82 -90 -181 -188 l-182 -177 -48 48 -49 49 182 182 c101 101 185 183 188 183
3 0 25 -19 48 -43z m-2549 -263 c63 -19 145 -78 186 -134 34 -46 65 -108 65
-130 0 -6 -31 -10 -79 -10 l-78 0 -26 39 c-15 22 -48 53 -74 68 -40 24 -59 28
-119 28 -61 0 -77 -4 -120 -30 -161 -100 -148 -344 23 -425 38 -18 60 -21 114
-18 78 4 133 35 177 98 l27 39 78 1 c91 0 93 -3 46 -91 -40 -75 -102 -132
-187 -172 -60 -28 -77 -32 -158 -32 -84 0 -95 2 -166 38 -287 141 -300 540
-23 703 87 51 204 61 314 28z m482 -12 c2 -21 4 -200 4 -397 l0 -360 -77 -3
-78 -3 0 401 0 400 74 0 74 0 3 -38z m524 -152 c87 -45 90 -54 93 -352 l3
-258 -80 0 -81 0 0 30 0 29 -32 -18 c-47 -27 -138 -45 -189 -37 -83 12 -139
69 -147 147 -13 140 49 205 227 233 124 20 147 35 134 86 -12 46 -127 57 -168
15 -14 -13 -25 -31 -25 -40 0 -12 -15 -15 -80 -15 -44 0 -80 4 -80 8 0 35 35
113 62 139 51 50 98 63 213 60 86 -2 108 -6 150 -27z m545 -49 l0 -79 -45 0
c-55 0 -108 -31 -133 -75 -14 -26 -18 -65 -20 -219 l-4 -188 -79 0 -79 0 6
308 c4 169 8 308 9 310 1 2 32 0 69 -4 l66 -7 0 -34 0 -35 45 40 c45 40 89 59
138 61 l27 1 0 -79z m443 59 c76 -29 130 -79 169 -158 29 -58 33 -76 32 -143
-1 -95 -32 -165 -102 -231 -156 -146 -395 -104 -492 86 -32 63 -35 77 -34 150
0 63 5 92 23 127 34 72 85 125 153 158 76 38 167 42 251 11z m707 -220 l0 -70
-205 0 -205 0 0 70 0 70 205 0 205 0 0 -70z m-1488 -429 c31 -5 75 -19 99 -30
24 -12 47 -21 52 -21 18 0 124 -77 174 -127 52 -52 126 -158 126 -180 0 -7 3
-13 7 -13 4 0 16 -30 28 -67 22 -75 24 -201 3 -241 -6 -12 -9 -22 -6 -22 4 0
3 -6 -2 -12 -4 -7 -8 -15 -8 -18 -2 -15 -40 -76 -51 -83 -8 -4 -14 -14 -14
-21 0 -7 -22 -33 -49 -57 -68 -61 -79 -69 -91 -69 -5 0 -10 -4 -10 -8 0 -8
-80 -52 -95 -52 -4 0 -21 -6 -38 -14 -102 -45 -306 -56 -424 -24 -80 22 -222
91 -264 129 -18 16 -37 29 -42 29 -6 0 -8 3 -4 6 3 3 -10 24 -30 45 -42 45
-73 94 -79 122 -2 10 -8 25 -15 33 -14 17 -15 194 -1 246 5 20 19 50 31 67 13
17 20 31 16 31 -11 0 46 95 71 117 13 12 24 25 24 29 0 13 158 144 174 144 4
0 31 11 61 25 29 14 73 29 97 34 65 11 196 13 260 2z"/>
<path d="M2290 3824 c-85 -19 -114 -40 -118 -88 -4 -51 19 -76 70 -76 46 0 90
21 112 52 16 23 23 129 9 127 -5 -1 -37 -7 -73 -15z"/>
<path d="M3250 4008 c-60 -31 -90 -77 -90 -140 0 -98 53 -158 145 -166 71 -6
118 17 152 75 21 37 25 53 21 99 -3 33 -13 66 -24 82 -24 32 -98 72 -134 72
-14 0 -46 -10 -70 -22z"/>
</g>
</svg>
